<svg id="Laag_1" data-name="Laag 1" xmlns="http://www.w3.org/2000/svg" viewBox="0 0 290.4 216.2"><defs><style>.cls-1{fill:#f1877a;}.cls-2{fill:#305299;}</style></defs><title>logo2color</title><path class="cls-1" d="M207.24,403.45a210.1,210.1,0,0,0,58.31,36.38A209.52,209.52,0,0,0,279.06,403a160.95,160.95,0,0,0-71.82.42Z" transform="translate(-121.93 -292.13)"/><path class="cls-2" d="M267,292.13a145,145,0,0,0-145,145c0,2,0,3.88.13,5.81a160.36,160.36,0,0,1,154.79-53,204.57,204.57,0,0,1-2-25.17c0-1.35-.05-2.72-.05-4.09a208.88,208.88,0,0,1,3.7-39.33q1.33-7.28,3.23-14.33v0q1.83-6.92,4.1-13.65c-2.52-.33-5-.6-7.6-.78Q272.66,292.14,267,292.13Z" transform="translate(-121.93 -292.13)"/><path class="cls-1" d="M324.74,352a12.69,12.69,0,1,0-12.67-12.69A12.7,12.7,0,0,0,324.74,352Z" transform="translate(-121.93 -292.13)"/><path class="cls-2" d="M334.1,308.59a42.84,42.84,0,0,1-5.92,77.76,62.62,62.62,0,0,0-21.62,12.89,62.61,62.61,0,0,0-19.14,33.3,63.12,63.12,0,0,0-1.37,13.07c0,.49,0,1,0,1.49a62.81,62.81,0,0,0,47.6,59.41,63.66,63.66,0,0,0,15.11,1.82A62.53,62.53,0,0,0,389.88,493c1.31-1.15,2.57-2.33,3.77-3.57,23.66-24.37,21.31-63.85,12.23-94.07A146,146,0,0,0,353,320.43,170,170,0,0,0,334.1,308.59Z" transform="translate(-121.93 -292.13)"/></svg>